#!OML:ASF X:\für Bonn\!DataBase\2005_08_12_Daniel\c3d\Daniel.ASF
:FULLY-SPECIFIED
:DEGREES
16
root -30.6731 16.8421 -26.7899 -4.57404 46.6485 -714.505
lowerback 41.9278 -2.68109 2.68978
upperback 11.6272 -1.51614 -1.8875
thorax -7.09085 -0.248092 -2.83004
lowerneck -0.668802 1.27248 -4.02837
upperneck -4.3305 1.55366 -5.15674
head -1.21244 0.935003 -0.937867
rclavicle -5.04913e-014 2.96189e-014
rhumerus -25.2342 -4.00772 -89.7761
rradius 27.5976
rwrist 4.75398
rhand -22.2106 21.6101
rfingers 7.12502
rthumb 4.20545 -8.32814
lclavicle -5.04913e-014 2.96189e-014
lhumerus -12.3901 16.0541 88.9019
lradius 31.2257
lwrist -18.0175
lhand -11.7438 -9.97512
lfingers 7.12502
lthumb 14.3039 19.5122
rfemur -10.3271 13.9329 22.923
rtibia 51.6375
rfoot -28.7892 4.62253
rtoes -9.47052
lfemur -31.0585 0.824849 -21.136
ltibia 56.6961
lfoot -17.8158 -1.29967
ltoes -14.1989
17
root -30.6276 16.8373 -26.7601 -4.66982 46.5805 -714.468
lowerback 42.0005 -2.64666 2.6685
upperback 11.6384 -1.48746 -1.96853
thorax -7.10076 -0.230988 -2.91674
lowerneck -0.716372 1.23506 -4.06272
upperneck -4.41732 1.50531 -5.0557
head -1.23275 0.912211 -0.900727
rclavicle -1.72943e-014 1.92821e-014
rhumerus -25.3969 -3.73707 -89.8493
rradius 28.1194
rwrist 4.35988
rhand -22.5669 21.6944
rfingers 7.12502
rthumb 3.8613 -8.25031
lclavicle -1.72943e-014 1.92821e-014
lhumerus -12.431 16.1846 88.7277
lradius 31.1798
lwrist -18.0688
lhand -11.8507 -10.0627
lfingers 7.12502
lthumb 14.2009 19.4319
rfemur -10.0998 13.8088 22.901
rtibia 51.7787
rfoot -28.8408 4.77632
rtoes -9.42192
lfemur -31.2375 0.416228 -21.0656
ltibia 55.5903
lfoot -17.6663 -1.33588
ltoes -14.2101
18
root -30.5814 16.8331 -26.729 -4.77753 46.5046 -714.432
lowerback 42.0895 -2.59686 2.62027
upperback 11.6465 -1.44892 -2.03462
thorax -7.11719 -0.21012 -2.97753
lowerneck -0.811597 1.2012 -4.14603
upperneck -4.45401 1.46773 -4.94732
head -1.22938 0.893236 -0.852352
rclavicle -4.75095e-014 1.66979e-014
rhumerus -25.5387 -3.35203 -89.9321
rradius 28.6048
rwrist 3.88934
rhand -22.9679 21.8325
rfingers 7.12502
rthumb 3.47408 -8.11891
lclavicle -4.75095e-014 1.66979e-014
lhumerus -12.4749 16.3313 88.5658
lradius 31.1326
lwrist -18.1198
lhand -11.9924 -10.1599
lfingers 7.12502
lthumb 14.0643 19.3442
rfemur -9.85496 13.6896 22.8769
rtibia 51.9182
rfoot -28.8594 4.96539
rtoes -9.23732
lfemur -31.3897 0.00564644 -20.9756
ltibia 54.4928
lfoot -17.5749 -1.41913
ltoes -14.2236
19
root -30.5347 16.8286 -26.6975 -4.89931 46.4431 -714.416
lowerback 42.1576 -2.55442 2.61859
upperback 11.6657 -1.40287 -2.12312
thorax -7.11624 -0.183778 -3.0896
lowerneck -0.930306 1.1512 -4.17645
upperneck -4.47037 1.41159 -4.82444
head -1.21532 0.862811 -0.807725
rclavicle 9.20373e-014 -9.36276e-014
rhumerus -25.6751 -2.94288 -90.0699
rradius 29.1228
rwrist 3.39886
rhand -23.4407 21.875
rfingers 7.12502
rthumb 3.01755 -8.08342
lclavicle 9.20373e-014 -9.36276e-014
lhumerus -12.5159 16.3935 88.3844
lradius 31.1085
lwrist -18.1022
lhand -12.0702 -10.2422
lfingers 7.12502
lthumb 13.9893 19.2671
rfemur -9.61315 13.5386 22.8691
rtibia 52.0689
rfoot -28.8781 5.11087
rtoes -9.20395
lfemur -31.539 -0.454014 -20.8445
ltibia 53.4102
lfoot -17.4905 -1.48553
ltoes -14.0726
20
root -30.488 16.824 -26.666 -5.01527 46.4042 -714.38
lowerback 42.2466 -2.51395 2.57748
upperback 11.6746 -1.37293 -2.19577
thorax -7.1324 -0.166283 -3.1578
lowerneck -1.05583 1.11346 -4.2682
upperneck -4.47245 1.37376 -4.68192
head -1.19601 0.841809 -0.747013
rclavicle -3.93594e-014 4.49253e-014
rhumerus -25.8254 -2.48417 -90.1988
rradius 29.6945
rwrist 2.87544
rhand -23.8245 21.918
rfingers 7.12502
rthumb 2.64682 -8.04532
lclavicle -3.93594e-014 4.49253e-014
lhumerus -12.565 16.6577 88.2215
lradius 31.068
lwrist -18.2849
lhand -12.1819 -10.3594
lfingers 7.12502
lthumb 13.8817 19.1573
rfemur -9.38477 13.3596 22.8398
rtibia 52.2461
rfoot -28.8824 5.28999
rtoes -9.08616
lfemur -31.6705 -0.937229 -20.7166
ltibia 52.3301
lfoot -17.4268 -1.59122
ltoes -13.9254
21
root -30.4393 16.8175 -26.633 -5.1495 46.3488 -714.369
lowerback 42.3144 -2.46192 2.54794
upperback 11.7019 -1.32293 -2.25778
thorax -7.12022 -0.138719 -3.22895
lowerneck -1.20399 1.05798 -4.38908
upperneck -4.47522 1.31407 -4.54274
head -1.17332 0.810384 -0.682429
rclavicle 8.94531e-014 -4.09496e-014
rhumerus -25.9357 -2.04969 -90.309
rradius 30.2612
rwrist 2.46148
rhand -24.2536 21.9915
rfingers 7.12502
rthumb 2.23244 -7.97659
lclavicle 8.94531e-014 -4.09496e-014
lhumerus -12.5964 16.9314 88.0853
lradius 31.0354
lwrist -18.4545
lhand -12.2938 -10.5061
lfingers 7.12502
lthumb 13.7738 19.018
rfemur -9.16295 13.1545 22.8079
rtibia 52.4469
rfoot -28.8529 5.52783
rtoes -8.90892
lfemur -31.7889 -1.41805 -20.5504
ltibia 51.2609
lfoot -17.3977 -1.67809
ltoes -13.8669
22
root -30.3903 16.8109 -26.6001 -5.26321 46.3038 -714.354
lowerback 42.3605 -2.40981 2.50564
upperback 11.7161 -1.28077 -2.32453
thorax -7.11686 -0.115852 -3.29558
lowerneck -1.32248 1.01839 -4.46225
upperneck -4.47987 1.27324 -4.40904
head -1.15582 0.78804 -0.627956
rclavicle -1.27222e-014 2.88238e-014
rhumerus -26.0609 -1.70804 -90.4091
rradius 30.8277
rwrist 2.24499
rhand -24.6183 22.0322
rfingers 7.12502
rthumb 1.88023 -7.93924
lclavicle -1.27222e-014 2.88238e-014
lhumerus -12.7032 17.1826 87.907
lradius 31.0741
lwrist -18.5995
lhand -12.3758 -10.6139
lfingers 7.12502
lthumb 13.6948 18.9155
rfemur -8.99585 12.871 22.747
rtibia 52.6928
rfoot -28.7563 5.8048
rtoes -8.84501
lfemur -31.9211 -1.92559 -20.3781
ltibia 50.1913
lfoot -17.3691 -1.72702
ltoes -13.7947
23
root -30.3403 16.8033 -26.5648 -5.43788 46.2635 -714.386
lowerback 42.4211 -2.35741 2.474
upperback 11.7397 -1.23171 -2.38541
thorax -7.10654 -0.0890524 -3.3642
lowerneck -1.47814 0.976778 -4.51625
upperneck -4.43126 1.23416 -4.29075
head -1.11512 0.76431 -0.580866
rclavicle -3.24019e-014 1.86858e-014
rhumerus -26.2023 -1.42722 -90.5157
rradius 31.4581
rwrist 2.04368
rhand -24.9626 22.1606
rfingers 7.12502
rthumb 1.54773 -7.81349
lclavicle -3.24019e-014 1.86858e-014
lhumerus -12.7895 17.5003 87.7344
lradius 31.0804
lwrist -18.7306
lhand -12.4931 -10.7515
lfingers 7.12502
lthumb 13.5818 18.7855
rfemur -8.80121 12.5786 22.7294
rtibia 52.96
rfoot -28.5855 6.06788
rtoes -8.69133
lfemur -32.0146 -2.45422 -20.1533
ltibia 49.1321
lfoot -17.3554 -1.75477
ltoes -13.7396
24
root -30.2888 16.7934 -26.5296 -5.58317 46.2412 -714.394
lowerback 42.4492 -2.29326 2.4342
upperback 11.7714 -1.17181 -2.44323
thorax -7.07684 -0.0569308 -3.42994
lowerneck -1.57383 0.915197 -4.51193
upperneck -4.45384 1.15987 -4.20502
head -1.10635 0.725626 -0.55425
rclavicle 6.12257e-014 -4.94974e-014
rhumerus -26.3276 -1.16031 -90.6229
rradius 32.1193
rwrist 1.79536
rhand -25.2729 22.2324
rfingers 7.12502
rthumb 1.24801 -7.74369
lclavicle 6.12257e-014 -4.94974e-014
lhumerus -12.8929 17.8302 87.5639
lradius 31.1272
lwrist -18.9415
lhand -12.5546 -10.9436
lfingers 7.12502
lthumb 13.5225 18.5974
rfemur -8.63153 12.269 22.678
rtibia 53.2688
rfoot -28.4081 6.36237
rtoes -8.38555
lfemur -32.1086 -2.99456 -19.9482
ltibia 48.0788
lfoot -17.357 -1.76741
ltoes -13.7435
25
root -30.2362 16.7829 -26.4926 -5.74778 46.2155 -714.401
lowerback 42.4893 -2.22099 2.35719
upperback 11.8019 -1.11625 -2.49566
thorax -7.05136 -0.0275129 -3.46891
lowerneck -1.68337 0.87003 -4.48852
upperneck -4.4366 1.10939 -4.13659
head -1.08255 0.697271 -0.535914
rclavicle -1.51076e-014 1.13307e-014
rhumerus -26.4504 -0.95792 -90.7113
rradius 32.7898
rwrist 1.73855
rhand -25.562 22.417
rfingers 7.12502
rthumb 0.968763 -7.56057
lclavicle -1.51076e-014 1.13307e-014
lhumerus -13.0259 18.0912 87.3567
lradius 31.2149
lwrist -19.0079
lhand -12.6117 -10.9953
lfingers 7.12502
lthumb 13.4675 18.5493
rfemur -8.44916 11.97 22.6338
rtibia 53.6015
rfoot -28.2616 6.63613
rtoes -8.1922
lfemur -32.1529 -3.4762 -19.7638
ltibia 47.0434
lfoot -17.3998 -1.73833
ltoes -13.9982
26
root -30.1822 16.7703 -26.4544 -5.95076 46.2016 -714.459
lowerback 42.5118 -2.15219 2.30435
upperback 11.8431 -1.05324 -2.53331
thorax -7.00819 0.00574059 -3.50753
lowerneck -1.81412 0.823403 -4.44546
upperneck -4.40181 1.05806 -4.09958
head -1.04948 0.667865 -0.530279
rclavicle 5.12864e-014 -3.3197e-014
rhumerus -26.5992 -0.71859 -90.7925
rradius 33.5702
rwrist 1.60267
rhand -25.7492 22.4959
rfingers 7.12502
rthumb 0.787957 -7.48238
lclavicle 5.12864e-014 -3.3197e-014
lhumerus -13.1846 18.3128 87.1269
lradius 31.3375
lwrist -19.0436
lhand -12.6486 -11.1075
lfingers 7.12502
lthumb 13.4319 18.4395
rfemur -8.27127 11.6596 22.6264
rtibia 53.965
rfoot -28.1333 6.91592
rtoes -8.03403
lfemur -32.1918 -3.97101 -19.5326
ltibia 46.0208
lfoot -17.509 -1.69755
ltoes -14.5519
27
root -30.1269 16.7532 -26.4154 -6.17427 46.2093 -714.495
lowerback 42.5663 -2.08029 2.22428
upperback 11.8835 -0.995037 -2.56563
thorax -6.97471 0.0367095 -3.52438
lowerneck -1.90441 0.779184 -4.37163
upperneck -4.39009 1.00541 -4.07052
head -1.03028 0.638567 -0.53256
rclavicle 4.77083e-014 -2.66371e-014
rhumerus -26.7315 -0.47477 -90.8836
rradius 34.3437
rwrist 1.47418
rhand -25.9859 22.6388
rfingers 7.12502
rthumb 0.55939 -7.34019
lclavicle 4.77083e-014 -2.66371e-014
lhumerus -13.3802 18.4734 86.8884
lradius 31.5006
lwrist -18.9989
lhand -12.6749 -11.1181
lfingers 7.12502
lthumb 13.4066 18.4305
rfemur -8.04332 11.368 22.6209
rtibia 54.344
rfoot -28.0233 7.14147
rtoes -7.89245
lfemur -32.1899 -4.48641 -19.3147
ltibia 45.0143
lfoot -17.7279 -1.64561
ltoes -15.1742
28
root -30.0691 16.7342 -26.3752 -6.45525 46.2007 -714.596
lowerback 42.6068 -2.02091 2.21118
upperback 11.9342 -0.926019 -2.60935
thorax -6.92626 0.0744691 -3.59234
lowerneck -1.98274 0.72822 -4.30134
upperneck -4.38606 0.943126 -4.01567
head -1.01563 0.604545 -0.526475
rclavicle 1.98785e-016 8.74653e-015
rhumerus -26.876 -0.248006 -90.9684
rradius 35.1683
rwrist 1.33089
rhand -26.1151 22.7722
rfingers 7.12502
rthumb 0.434564 -7.20712
lclavicle 1.98785e-016 8.74653e-015
lhumerus -13.5292 18.6495 86.6421
lradius 31.601
lwrist -19.0039
lhand -12.6988 -11.1413
lfingers 7.12502
lthumb 13.3836 18.4088
rfemur -7.79176 11.1136 22.6753
rtibia 54.7242
rfoot -27.92 7.35198
rtoes -7.68434
lfemur -32.1605 -4.99628 -19.0451
ltibia 44.027
lfoot -17.9968 -1.56305
ltoes -15.4971
